<?xml version="1.0" encoding="utf-8"?>
<!-- Generator: Adobe Illustrator 23.0.2, SVG Export Plug-In . SVG Version: 6.00 Build 0)  -->
<svg version="1.1" id="Layer_1" xmlns="http://www.w3.org/2000/svg" xmlns:xlink="http://www.w3.org/1999/xlink" x="0px" y="0px"
	 viewBox="0 0 140 32.8" style="enable-background:new 0 0 140 32.8;" xml:space="preserve">
<g>
	<path d="M15.5,22.6c-2.5,2.1-4.8,2.1-7.9,2.1H0V0.5h7.4c2.9,0,5.6,0,7.7,2.4c1,1.1,1.5,2.5,1.4,4c0,2-1,3.9-2.8,4.9
		c2.6,0.9,4,2.9,4,5.6C17.8,19.3,17,21.3,15.5,22.6z M8.3,5.9H5.9v3.8h2.3c1.3,0,2.4-0.4,2.4-1.9C10.7,6.2,9.5,5.9,8.3,5.9z M9,14.8
		H5.9v4.4h3.1c1.5,0,2.9-0.5,2.9-2.3C11.9,15.2,10.4,14.8,9,14.8z M28.1,25.3c-5.5,0-9.7-4.1-9.7-9.7s4.2-9.7,9.7-9.7
		s9.7,4.1,9.7,9.7S33.7,25.3,28.1,25.3z M28.1,11c-2.5,0-4.3,2.1-4.3,4.6c0,2.5,1.8,4.6,4.3,4.6s4.3-2.1,4.3-4.6S30.6,11,28.1,11
		L28.1,11L28.1,11z M43.9,15.4v9.3h-5.4V6.5h5.1v2.6h0.1c0.9-1.9,2.4-2.6,4.5-2.6v5.5C45.8,12.1,43.9,12.6,43.9,15.4z M60.7,24.7
		v-9.9c0-2-0.4-3.8-2.8-3.8c-2.5,0-3.1,1.6-3.1,3.8v9.9h-5.4V6.5h5.1v1.9h0.1c1.1-1.9,2.7-2.6,4.9-2.6c1.5,0,3.5,0.6,4.6,1.6
		c1.7,1.4,2.1,3.7,2.1,5.9v11.4L60.7,24.7L60.7,24.7z M78.5,24.7V10.6h-4.7v14.1h-5.4V10.6h-2V6.5h2v-1c0-4.4,3.1-5.6,6.9-5.6h0.8
		v4.1c-2,0-2.3,0.4-2.3,2.4h10.1v18.2L78.5,24.7L78.5,24.7z M78.5,4.6V0.5h5.4v4.1L78.5,4.6L78.5,4.6z M103.1,28.5
		c-1.8,3-5.9,4.3-9.2,4.3c-3.1,0-6.1-1-7.9-3.6c-0.6-0.8-1-1.8-1.1-2.8h6.3c0.6,1.3,1.8,1.8,3.2,1.8c3,0,4.4-2.1,4.4-4.9v-0.6h-0.1
		c-0.9,1.8-3,2.6-4.9,2.6c-5.4,0-9.1-4.3-9.1-9.6s3.6-9.8,9.1-9.8c1.9,0,3.9,0.6,5,2.3h0.1V6.5h5.4v16
		C104.1,24.5,104.1,26.7,103.1,28.5L103.1,28.5z M94.3,11c-1.2,0-2.3,0.5-3.1,1.3c-0.8,0.9-1.3,2-1.2,3.2c0,2.5,1.7,4.7,4.3,4.7
		c2.6,0,4.4-1.9,4.4-4.5C98.7,13.1,97,11,94.3,11z M116.7,24.7v-9.9c0-2-0.5-3.8-2.9-3.8c-2.3,0-3,1.5-3,3.6v10.1h-5.4V0.5h5.4v7.7
		h0.1c0.9-1.7,2.8-2.3,4.7-2.3c1.8,0,3.7,0.6,4.9,2c1.7,2,1.7,4.2,1.7,6.7v10.2C122.1,24.7,116.7,24.7,116.7,24.7z M129.9,10.6v14.1
		h-5.4V10.6h-2.3V6.5h2.3V0.5h5.4v6.1h2.6v4.1H129.9z M140,20.8c0,0.5-0.1,1-0.3,1.5c-0.4,0.9-1.1,1.7-2,2.1c-1,0.4-2,0.4-3,0
		c-0.9-0.4-1.7-1.1-2-2.1c-0.4-1-0.4-2,0-3c0.4-0.9,1.1-1.7,2-2.1c1-0.4,2-0.4,3,0c0.9,0.4,1.7,1.1,2,2.1
		C139.9,19.8,140,20.3,140,20.8z M136.2,17.7c-0.4,0-0.8,0.1-1.2,0.3c-0.8,0.3-1.4,0.9-1.7,1.7c-0.3,0.8-0.3,1.7,0,2.5
		c0.3,0.8,0.9,1.4,1.7,1.7c0.8,0.3,1.7,0.3,2.5,0c0.8-0.3,1.4-0.9,1.7-1.7c0.3-0.8,0.3-1.7,0-2.5C138.6,18.4,137.4,17.7,136.2,17.7
		C136.2,17.7,136.2,17.7,136.2,17.7z M137,21.2l0.9,1.6c0,0,0,0.1,0,0.1c0,0-0.1,0.1-0.1,0.1h-0.7c-0.1,0-0.1,0-0.1-0.1l-0.8-1.6
		h-0.7v1.5c0,0.1-0.1,0.1-0.1,0.1c0,0,0,0,0,0h-0.6c-0.1,0-0.1-0.1-0.1-0.1c0,0,0,0,0,0v-4.1c0-0.1,0.1-0.1,0.1-0.1c0,0,0,0,0,0h1.3
		c0.3,0,0.5,0,0.8,0.1c0.2,0.1,0.4,0.3,0.6,0.5c0.1,0.2,0.2,0.5,0.2,0.8c0,0.2-0.1,0.5-0.2,0.7C137.4,20.9,137.2,21.1,137,21.2
		L137,21.2L137,21.2z M136.8,20c0-0.2-0.1-0.4-0.3-0.5c-0.2-0.1-0.3-0.1-0.5-0.1h-0.5v1.2h0.7c0.2,0,0.3,0,0.4-0.2
		C136.7,20.3,136.8,20.2,136.8,20L136.8,20z"/>
</g>
</svg>
