<svg width="200" height="17" viewBox="0 0 200 17" xmlns="http://www.w3.org/2000/svg">
<path d="M0 16.6369H4.74784C7.59235 16.6369 10.646 15.7971 10.646 12.0067C10.646 9.6008 9.24469 8.51135 7.82243 8.08011C8.93095 7.64887 10.0186 6.55941 10.0186 4.38051C10.0186 1.498 8.07341 0.408545 4.47593 0.408545H0V16.6369ZM2.17522 9.30574H4.8315C6.9858 9.30574 8.36623 9.96395 8.36623 11.9613C8.36623 13.9586 6.96489 14.6395 5.27073 14.6395H2.17522V9.30574ZM2.17522 2.42857H3.8903C6.12826 2.42857 7.6551 2.65554 7.6551 4.83445C7.6551 6.71829 6.60932 7.35381 4.60143 7.35381H2.17522V2.42857Z"/>
<path d="M19.5039 0.090788C15.028 0.090788 11.9952 3.51803 11.9952 8.53405C11.9952 13.5501 15.0071 16.9546 19.5249 16.9546C24.0635 16.9546 27.0545 13.5501 27.0545 8.53405C27.0545 3.51803 24.0217 0.090788 19.5039 0.090788ZM19.483 2.11081C22.7249 2.11081 24.6492 4.74366 24.6492 8.51135C24.6492 12.2563 22.704 14.9573 19.5039 14.9573C16.2829 14.9573 14.3587 12.2109 14.3587 8.51135C14.3587 4.78905 16.2411 2.11081 19.483 2.11081Z"/>
<path d="M29.3034 16.6369H31.4995V10.1228H33.6329C34.6996 12.1202 35.9964 14.4806 37.1049 16.6369H39.7403C38.0252 13.5047 36.9794 11.6435 35.9127 9.75968C37.8369 9.32844 39.5311 8.01202 39.5311 5.1522C39.5311 3.49533 38.9245 2.17891 37.7533 1.33912C36.6866 0.544726 35.3271 0.408545 33.8211 0.408545H29.3034V16.6369ZM31.4995 2.51936C31.8551 2.49666 32.2316 2.49666 32.608 2.49666H33.8002C35.8709 2.49666 37.1467 3.22296 37.1467 5.24299C37.1467 7.24032 35.8918 8.05741 33.8002 8.05741H31.4995V2.51936Z"/>
<path d="M41.79 16.6369H43.9652V8.05741C43.9652 6.89987 43.9443 5.69693 43.9443 4.69827V3.60881H43.9652C44.1744 4.08545 45.1156 5.81041 46.0149 7.51268L50.9719 16.6369H53.8164V0.408545H51.6412V8.96529C51.6412 10.5314 51.683 12.4606 51.683 13.3912L51.6621 13.4139L49.8006 9.89586L44.7182 0.408545H41.79V16.6369Z"/>
<path d="M56.2852 16.6369H58.5022V9.37383H64.9442V7.28571H58.5022V2.49666H65.4462V0.408545H56.2852V16.6369Z"/>
<path d="M67.6281 16.6369H69.8242V0.408545H67.6281V16.6369Z" />
<path d="M78.9467 8.05741V10.1228H84.4056C84.2383 12.4379 82.7951 15.0027 79.5532 15.0027C76.4577 15.0027 74.4707 12.4606 74.4707 8.53405C74.4707 4.4713 76.5205 2.11081 79.595 2.11081C82.1677 2.11081 83.4226 3.54072 84.0919 5.26569H86.3717C85.5978 2.31509 83.3808 0.090788 79.616 0.090788C75.0354 0.090788 72.0863 3.6769 72.0863 8.55674C72.0863 13.6862 75.1609 17 79.365 17C82.0631 17 83.5899 15.6382 84.3847 14.5941C84.3638 15.0254 84.3638 15.4339 84.3638 15.8198V16.6369H86.3717V8.05741H78.9467Z"/>
<path d="M90.8893 16.6369V9.30574H97.8333V16.6369H100.008V0.408545H97.8333V7.28571H90.8893V0.408545H88.6932V16.6369H90.8893Z"/>
<path d="M105.963 16.6369H108.159V2.49666H112.217V0.408545H101.906V2.49666H105.963V16.6369Z"/>
<path d="M117.284 12.0294C117.472 15.1389 119.584 16.9546 122.952 16.9546C126.194 16.9546 128.453 15.0027 128.453 12.0294C128.453 9.32844 126.738 8.26168 124.102 7.4219L123.056 7.08144C121.425 6.53672 120.107 6.01469 120.107 4.33511C120.107 2.9733 121.111 2.04272 122.868 2.04272C124.688 2.04272 125.629 2.9733 125.88 4.60748H128.139C127.867 1.81575 126.131 0.0680913 122.931 0.0680913C119.835 0.0680913 117.744 1.90654 117.744 4.53939C117.744 7.12684 119.417 8.28438 122.115 9.19226L123.098 9.53271C124.834 10.1455 126.131 10.5541 126.131 12.3244C126.131 13.9586 124.96 15.0481 122.973 15.0481C120.818 15.0481 119.794 13.7543 119.522 12.0294H117.284Z"/>
<path d="M133.333 16.6369H135.529V2.49666H139.587V0.408545H129.275V2.49666H133.333V16.6369Z"/>
<path d="M143.535 0.408545H141.339V10.3271C141.339 12.279 141.506 13.5047 142.343 14.7984C143.242 16.1602 144.936 16.9092 146.84 16.9092C148.743 16.9092 150.479 16.1375 151.399 14.753C152.173 13.5955 152.382 12.2336 152.382 10.3271V0.408545H150.186V10.259C150.186 11.6208 150.124 12.5741 149.726 13.3685C149.245 14.3672 148.116 14.98 146.84 14.98C145.564 14.98 144.476 14.3672 143.995 13.3685C143.598 12.5514 143.535 11.6208 143.535 10.259V0.408545Z"/>
<path d="M154.714 16.6369H159.148C164.858 16.6369 167.096 13.028 167.096 8.55674C167.096 3.29106 164.377 0.408545 158.793 0.408545H154.714V16.6369ZM156.931 2.47397H157.601C157.998 2.47397 158.437 2.45127 158.835 2.45127C162.62 2.45127 164.712 4.53939 164.712 8.55674C164.712 13.028 162.558 14.6168 158.625 14.6168H156.931V2.47397Z"/>
<path d="M169.386 16.6369H171.582V0.408545H169.386V16.6369Z" />
<path d="M181.353 0.090788C176.877 0.090788 173.845 3.51803 173.845 8.53405C173.845 13.5501 176.856 16.9546 181.374 16.9546C185.913 16.9546 188.904 13.5501 188.904 8.53405C188.904 3.51803 185.871 0.090788 181.353 0.090788ZM181.332 2.11081C184.574 2.11081 186.499 4.74366 186.499 8.51135C186.499 12.2563 184.553 14.9573 181.353 14.9573C178.132 14.9573 176.208 12.2109 176.208 8.51135C176.208 4.78905 178.09 2.11081 181.332 2.11081Z"/>
<path d="M193.328 8.30708H194.332V5.96929H194.98L196.277 8.30708H197.406L196.026 5.83311C196.758 5.62884 197.323 5.12951 197.323 4.06275C197.323 3.44993 197.114 2.9733 196.674 2.67824C196.277 2.40588 195.796 2.33778 195.231 2.33778H193.328V8.30708ZM194.332 3.24566H195.148C195.88 3.24566 196.34 3.47263 196.34 4.13084C196.34 4.83445 195.88 5.06142 195.148 5.06142H194.332V3.24566ZM200 5.28839C200 2.38318 197.804 0 195.127 0C192.366 0 190.232 2.38318 190.232 5.28839C190.232 8.23899 192.429 10.5995 195.106 10.5995C197.825 10.5995 200 8.23899 200 5.28839ZM199.059 5.28839C199.059 7.69426 197.281 9.6235 195.106 9.6235C192.91 9.6235 191.195 7.69426 191.195 5.28839C191.195 2.90521 192.91 0.975967 195.127 0.975967C197.281 0.975967 199.059 2.90521 199.059 5.28839Z"/>
</svg>
