<svg width="902" height="704" viewBox="0 0 902 704" fill="none" xmlns="http://www.w3.org/2000/svg">
<path fill-rule="evenodd" clip-rule="evenodd" d="M111.843 52.5071C108.18 60.4271 101.646 67.2581 88.4792 67.2581C71.7482 67.2581 62.0462 54.8831 62.0462 37.5581C62.0462 20.1341 71.7482 7.9571 88.3802 7.9571C101.745 7.9571 108.675 14.5901 112.041 23.5001H120.654C116.001 8.8481 105.012 0.829102 88.4792 0.829102C67.4912 0.829102 52.9382 15.9761 52.9382 37.6571C52.9382 59.5361 67.2932 74.3861 87.9842 74.3861C104.319 74.3861 115.506 65.9711 120.555 52.5071H111.843ZM169.033 21.0251H160.816V52.3091C160.816 60.6251 156.262 67.7531 147.847 67.7531C139.036 67.7531 135.274 61.3181 135.274 51.0221V21.0251H127.057V53.4971C127.057 66.6641 132.7 74.3861 144.679 74.3861C153.589 74.3861 158.638 70.1291 161.014 65.8721V73.0001H169.132C169.033 70.3271 169.033 67.7531 169.033 65.0801V21.0251ZM180.246 21.0251H188.067V29.4401C189.849 23.9951 195.195 19.8371 201.234 19.8371C201.729 19.8371 202.323 19.8371 202.818 19.9361V27.7571C202.026 27.4601 200.541 27.4601 199.452 27.4601C191.433 27.4601 188.562 34.1921 188.562 44.5871V73.0001H180.345V28.8461C180.345 26.4701 180.345 23.4011 180.246 21.0251ZM213.661 36.7661C214.354 30.0341 218.116 26.0741 226.432 26.0741C235.243 26.0741 239.104 30.5291 239.104 41.6171C234.847 41.9141 229.699 42.6071 225.442 43.3001C212.77 45.3791 203.464 48.8441 203.464 59.0411C203.464 68.5451 210.988 73.9901 221.68 73.9901C231.085 73.9901 236.332 70.2281 239.599 64.9811C239.599 68.4461 239.896 70.7231 240.292 73.0001H247.816C247.123 70.6241 246.826 67.0601 246.826 62.7041V49.9331C246.826 48.7066 246.852 47.2163 246.878 45.7754L246.878 45.7739V45.7728V45.772V45.7714L246.878 45.7694C246.902 44.4211 246.925 43.1164 246.925 42.1121C246.925 25.9751 240.292 19.6391 226.828 19.6391C214.255 19.6391 205.84 27.0641 205.84 36.7661H213.661ZM239.203 49.9331C239.203 61.9121 233.659 68.2481 223.66 68.2481C216.532 68.2481 212.077 64.8821 212.077 58.9421C212.077 51.5171 220.096 50.0321 234.946 47.9531L239.302 47.3591C239.203 47.6561 239.203 48.5471 239.203 49.9331ZM259.582 61.0211V27.1631H251.563V21.0251H259.582V6.9671H267.7V21.0251H277.6V27.1631H267.7V60.3281C267.7 65.5751 270.175 67.7531 275.026 67.7531C275.521 67.7531 275.818 67.7531 276.61 67.6541V73.7921C275.719 73.8911 274.729 73.9901 273.838 73.9901C265.225 73.9901 259.582 70.9211 259.582 61.0211ZM330.353 48.3491C330.353 48.2472 330.364 48.1337 330.379 47.9845V47.9842C330.409 47.6985 330.452 47.2822 330.452 46.5671C330.452 32.7071 322.928 19.6391 305.801 19.6391C290.06 19.6391 279.664 30.8261 279.664 47.1611C279.664 62.9021 289.367 74.2871 305.702 74.2871C317.483 74.2871 326.096 67.4561 329.264 58.2491H320.948C318.473 63.2981 313.721 67.6541 305.9 67.6541C295.207 67.6541 288.574 60.7241 287.882 48.3491H330.353ZM288.277 42.2111C289.564 32.6081 295.703 26.0741 305.603 26.0741C315.898 26.0741 320.75 32.8061 321.839 42.2111H288.277ZM376.266 2.2151H384.483V73.0001H376.86V65.0801C373.791 69.7331 367.752 74.2871 358.743 74.2871C344.586 74.2871 334.389 64.2881 334.389 46.9631C334.389 30.9251 344.388 19.6391 358.149 19.6391C367.851 19.6391 373.395 24.1931 376.365 29.0441C376.266 25.4801 376.266 21.0251 376.266 17.5601V2.2151ZM343.299 46.9631C343.299 59.6351 349.239 67.6541 359.931 67.6541C370.722 67.6541 376.464 59.6351 376.464 46.9631C376.464 34.8851 370.623 26.3711 359.931 26.3711C349.239 26.3711 343.299 34.8851 343.299 46.9631ZM436.306 73.0001L441.652 53.2991C443.581 46.3896 445.379 38.502 446.676 32.8113L446.676 32.8086L446.677 32.8058L446.679 32.7969C446.979 31.4811 447.252 30.2831 447.493 29.2421H447.79C448.126 30.7045 448.564 32.7389 449.071 35.0913L449.071 35.0927C450.211 40.384 451.697 47.2839 453.136 52.9031L458.086 73.0001H469.075C469.538 71.5034 469.995 70.0166 470.45 68.5384L470.47 68.4735L470.482 68.4345C472.061 63.2999 473.608 58.2699 475.213 53.2991C476.028 50.7153 476.87 48.0275 477.719 45.3181L477.722 45.3099L477.724 45.3039L477.726 45.2965L477.727 45.2913C480.486 36.4859 483.316 27.455 485.509 21.0251H477.292L470.659 43.3991C469.579 47.1807 468.498 50.7372 467.455 54.1708L467.454 54.1752L467.453 54.1778L467.453 54.1793L467.452 54.1803L467.452 54.1809L467.452 54.1815C466.202 58.2948 465.006 62.2319 463.927 66.1691H463.729C462.735 62.1406 461.84 58.3119 460.995 54.6957L460.991 54.6797L460.991 54.6769C460.155 51.1018 459.368 47.7345 458.581 44.5871L452.938 21.0251H442.741L436.405 45.7751C435.701 48.5555 435.025 51.1138 434.365 53.6059L434.361 53.6206L434.359 53.6298L434.358 53.6326L434.358 53.6353L434.357 53.6383C433.259 57.7896 432.209 61.7591 431.158 66.2681H430.96C430.466 64.5009 430.01 62.8852 429.582 61.3661L429.575 61.341L429.575 61.3402C428.207 56.4889 427.116 52.6219 425.911 47.9531L418.189 21.0251H409.279C410.515 24.9136 412.004 29.7745 413.59 34.9533L413.59 34.9537C415.436 40.9822 417.415 47.4414 419.278 53.2991L425.317 73.0001H436.306ZM495.086 46.9631C495.086 59.3381 501.422 67.6541 512.807 67.6541C524.192 67.6541 530.429 59.3381 530.429 46.9631C530.429 34.9841 523.994 26.2721 512.807 26.2721C501.521 26.2721 495.086 34.9841 495.086 46.9631ZM539.339 47.0621C539.339 62.9021 529.34 74.2871 512.807 74.2871C496.175 74.2871 486.671 62.9021 486.671 47.0621C486.671 31.2221 496.769 19.6391 513.005 19.6391C529.241 19.6391 539.339 31.2221 539.339 47.0621ZM554.997 21.0251H547.176C547.275 23.4011 547.275 26.4701 547.275 28.8461V73.0001H555.492V44.5871C555.492 34.1921 558.363 27.4601 566.382 27.4601C567.471 27.4601 568.956 27.4601 569.748 27.7571V19.9361C569.253 19.8371 568.659 19.8371 568.164 19.8371C562.125 19.8371 556.779 23.9951 554.997 29.4401V21.0251ZM591.856 44.6861L616.507 73.0001H605.518C602.35 69.0401 596.806 62.4071 592.054 56.7641L583.243 46.4681V73.0001H575.026V2.2151H583.243V44.6861L591.46 35.4791C595.915 30.5291 601.063 24.5891 604.132 21.0251H614.23C609.577 26.0741 604.033 32.0141 599.578 36.6671C596.905 39.3401 594.331 42.0131 591.856 44.6861ZM15.3476 125.766C16.0406 119.034 19.8026 115.074 28.1186 115.074C36.9296 115.074 40.7906 119.529 40.7906 130.617C36.5336 130.914 31.3856 131.607 27.1286 132.3C14.4566 134.379 5.15063 137.844 5.15063 148.041C5.15063 157.545 12.6746 162.99 23.3666 162.99C32.7716 162.99 38.0186 159.228 41.2856 153.981C41.2856 157.446 41.5826 159.723 41.9786 162H49.5026C48.8096 159.624 48.5126 156.06 48.5126 151.704V138.933C48.5126 137.705 48.5391 136.214 48.5646 134.771C48.5885 133.422 48.6116 132.117 48.6116 131.112C48.6116 114.975 41.9786 108.639 28.5146 108.639C15.9416 108.639 7.52663 116.064 7.52663 125.766H15.3476ZM40.8896 138.933C40.8896 150.912 35.3456 157.248 25.3466 157.248C18.2186 157.248 13.7636 153.882 13.7636 147.942C13.7636 140.517 21.7826 139.032 36.6326 136.953L40.9886 136.359C40.8896 136.656 40.8896 137.547 40.8896 138.933ZM67.4069 162H59.1899V117.846C59.1899 115.47 59.1899 112.401 59.0909 110.025H67.2089V117.45C69.8819 113.094 75.2279 108.639 84.1379 108.639C96.1169 108.639 101.958 116.361 101.958 129.528V162H93.7409V132.102C93.7409 121.707 89.9789 115.272 80.9699 115.272C72.2579 115.272 67.4069 122.4 67.4069 130.815V162ZM159.386 91.2151H151.169V106.56C151.169 110.025 151.169 114.48 151.268 118.044C148.298 113.193 142.754 108.639 133.052 108.639C119.291 108.639 109.292 119.925 109.292 135.963C109.292 153.288 119.489 163.287 133.646 163.287C142.655 163.287 148.694 158.733 151.763 154.08V162H159.386V91.2151ZM134.834 156.654C124.142 156.654 118.202 148.635 118.202 135.963C118.202 123.885 124.142 115.371 134.834 115.371C145.526 115.371 151.367 123.885 151.367 135.963C151.367 148.635 145.625 156.654 134.834 156.654ZM200.16 91.2151V101.214H191.745V91.2151H200.16ZM191.943 162V110.025H199.962V162H191.943ZM211.283 162H219.5V130.815C219.5 122.4 224.351 115.272 233.063 115.272C242.072 115.272 245.834 121.707 245.834 132.102V162H254.051V129.528C254.051 116.361 248.21 108.639 236.231 108.639C227.321 108.639 221.975 113.094 219.302 117.45V110.025H211.184C211.283 112.401 211.283 115.47 211.283 117.846V162ZM282.174 163.188C270.69 163.188 262.869 158.238 260.592 146.259H268.611C270.492 152.991 274.452 156.753 282.372 156.753C289.5 156.753 294.351 153.288 294.351 148.14C294.351 142.992 290.094 141.507 283.362 139.626L277.224 137.943C268.908 135.567 262.473 132.696 262.473 123.687C262.473 114.381 270.492 108.639 281.778 108.639C292.371 108.639 299.796 113.094 301.38 123.687H293.658C292.173 118.539 288.411 115.074 281.58 115.074C274.452 115.074 270.69 118.341 270.69 122.598C270.69 127.251 274.353 129.132 281.085 131.013L287.619 132.894C296.628 135.567 302.37 138.834 302.37 147.15C302.37 157.347 294.054 163.188 282.174 163.188ZM310.097 110.025V179.82H318.314V167.94C318.314 162 318.215 157.446 318.116 154.674C321.284 159.129 327.125 163.287 335.837 163.287C349.994 163.287 360.191 152.298 360.191 135.666C360.191 119.628 350.588 108.639 336.431 108.639C327.224 108.639 320.987 113.49 318.116 118.143V110.124L310.097 110.025ZM334.649 156.654C323.858 156.654 318.116 148.635 318.116 135.963C318.116 123.885 323.957 115.272 334.649 115.272C345.341 115.272 351.281 123.885 351.281 135.963C351.281 148.635 345.341 156.654 334.649 156.654ZM376.326 91.2151V101.214H367.911V91.2151H376.326ZM368.109 162V110.025H376.128V162H368.109ZM395.17 110.025H387.349C387.448 112.401 387.448 115.47 387.448 117.846V162H395.665V133.587C395.665 123.192 398.536 116.46 406.555 116.46C407.644 116.46 409.129 116.46 409.921 116.757V108.936C409.426 108.837 408.832 108.837 408.337 108.837C402.298 108.837 396.952 112.995 395.17 118.44V110.025ZM433.535 115.074C425.219 115.074 421.457 119.034 420.764 125.766H412.943C412.943 116.064 421.358 108.639 433.931 108.639C447.395 108.639 454.028 114.975 454.028 131.112C454.028 132.115 454.005 133.418 453.981 134.764L453.981 134.767V134.769V134.771V134.772V134.773V134.774V134.775V134.776V134.778L453.981 134.781C453.956 136.22 453.929 137.708 453.929 138.933V151.704C453.929 156.06 454.226 159.624 454.919 162H447.395C446.999 159.723 446.702 157.446 446.702 153.981C443.435 159.228 438.188 162.99 428.783 162.99C418.091 162.99 410.567 157.545 410.567 148.041C410.567 137.844 419.873 134.379 432.545 132.3C436.802 131.607 441.95 130.914 446.207 130.617C446.207 119.529 442.346 115.074 433.535 115.074ZM430.763 157.248C440.762 157.248 446.306 150.912 446.306 138.933C446.306 137.547 446.306 136.656 446.405 136.359L442.049 136.953C427.199 139.032 419.18 140.517 419.18 147.942C419.18 153.882 423.635 157.248 430.763 157.248ZM466.686 116.163V150.021C466.686 159.921 472.329 162.99 480.942 162.99C481.833 162.99 482.823 162.891 483.714 162.792V156.654C482.922 156.753 482.625 156.753 482.13 156.753C477.279 156.753 474.804 154.575 474.804 149.328V116.163H484.704V110.025H474.804V95.9671H466.686V110.025H458.667V116.163H466.686ZM498.834 91.2151V101.214H490.419V91.2151H498.834ZM490.617 162V110.025H498.636V162H490.617ZM532.727 156.654C521.342 156.654 515.006 148.338 515.006 135.963C515.006 123.984 521.441 115.272 532.727 115.272C543.914 115.272 550.349 123.984 550.349 135.963C550.349 148.338 544.112 156.654 532.727 156.654ZM532.727 163.287C549.26 163.287 559.259 151.902 559.259 136.062C559.259 120.222 549.161 108.639 532.925 108.639C516.689 108.639 506.591 120.222 506.591 136.062C506.591 151.902 516.095 163.287 532.727 163.287ZM575.412 162H567.195V117.846C567.195 115.47 567.195 112.401 567.096 110.025H575.214V117.45C577.887 113.094 583.233 108.639 592.143 108.639C604.122 108.639 609.963 116.361 609.963 129.528V162H601.746V132.102C601.746 121.707 597.984 115.272 588.975 115.272C580.263 115.272 575.412 122.4 575.412 130.815V162ZM8.3329 653.309C7.8519 654.349 6.9939 655.246 5.2649 655.246C3.0679 655.246 1.7939 653.621 1.7939 651.346C1.7939 649.058 3.0679 647.459 5.2519 647.459C7.0069 647.459 7.9169 648.33 8.3589 649.5H9.4899C8.8789 647.576 7.4359 646.523 5.2649 646.523C2.5089 646.523 0.5979 648.512 0.5979 651.359C0.5979 654.232 2.4829 656.182 5.1999 656.182C7.3449 656.182 8.8139 655.077 9.4769 653.309H8.3329ZM15.0496 646.523C12.2806 646.523 10.3956 648.499 10.3956 651.359C10.3956 654.219 12.2676 656.182 15.0626 656.182C17.8836 656.182 19.7166 654.219 19.7166 651.359C19.7166 648.486 17.8186 646.523 15.0496 646.523ZM15.0366 647.446C17.2076 647.446 18.4946 649.006 18.4946 651.346C18.4946 653.647 17.1816 655.259 15.0496 655.259C12.8656 655.259 11.5786 653.634 11.5786 651.346C11.5786 649.045 12.8656 647.446 15.0366 647.446ZM28.5514 646.705V656H26.9524L23.8584 650.436C23.6581 650.061 23.4309 649.651 23.2191 649.268C22.8806 648.658 22.5813 648.117 22.4934 647.901H22.4674C22.4674 648.125 22.4699 648.676 22.4727 649.292V649.293L22.4727 649.294L22.4727 649.294C22.4763 650.078 22.4804 650.966 22.4804 651.424V656H21.3754V646.705H23.0524L26.2114 652.438L27.4854 654.791H27.5114C27.5114 654.567 27.5041 654.196 27.4958 653.775C27.4849 653.223 27.4724 652.584 27.4724 652.074V646.705H28.5514ZM32.5726 656H33.6776V647.667H36.2776V646.705H29.9726V647.667H32.5726V656ZM43.5584 656H37.6954V646.705H43.4674V647.667H38.8004V650.748H43.1554V651.71H38.8004V655.038H43.5584V656ZM52.3967 656V646.705H51.3177V652.074C51.3177 652.584 51.3303 653.223 51.3411 653.775L51.3412 653.776C51.3494 654.196 51.3567 654.567 51.3567 654.791H51.3307L50.0567 652.438L46.8977 646.705H45.2207V656H46.3257V651.424C46.3257 650.966 46.3216 650.076 46.318 649.292L46.318 649.287L46.3147 648.548C46.3135 648.259 46.3127 648.028 46.3127 647.901H46.3387C46.4265 648.117 46.725 648.656 47.0627 649.265L47.0644 649.268C47.2763 649.651 47.5035 650.061 47.7037 650.436L50.7977 656H52.3967ZM57.523 656H56.418V647.667H53.818V646.705H60.123V647.667H57.523V656ZM63.6408 653.361C63.8488 655.181 65.1488 656.182 67.0988 656.182C69.0878 656.182 70.4398 655.181 70.4398 653.452C70.4398 651.918 69.2698 651.32 67.7488 650.839L67.1118 650.618C65.8768 650.202 65.1228 649.825 65.1228 648.837C65.1228 647.94 65.8508 647.394 67.0598 647.394C68.2688 647.394 68.9708 647.966 69.1788 649.11H70.2578C70.0888 647.433 68.9838 646.523 67.0988 646.523C65.1618 646.523 63.9788 647.498 63.9788 648.954C63.9788 650.384 64.9538 651.047 66.5658 651.567L67.1248 651.749C68.2818 652.139 69.2828 652.477 69.2828 653.595C69.2828 654.635 68.4768 655.298 67.1248 655.298C65.7208 655.298 64.9408 654.596 64.7458 653.361H63.6408ZM74.8429 656H73.7379V647.667H71.1379V646.705H77.4429V647.667H74.8429V656ZM78.8607 656H79.9657V652.087H81.4607L83.7487 656H85.0877C84.8534 655.615 84.5996 655.202 84.3394 654.778C83.748 653.815 83.1233 652.798 82.6177 651.931C83.8527 651.723 84.9837 650.956 84.9837 649.344C84.9837 648.408 84.6327 647.68 83.9177 647.225C83.2807 646.77 82.4357 646.705 81.4997 646.705H78.8607V656ZM79.9657 647.641H81.4867C82.0977 647.641 82.5787 647.732 82.9297 647.901C83.4887 648.161 83.7877 648.629 83.7877 649.396C83.7877 650.059 83.5537 650.488 83.1247 650.787C82.7477 651.047 82.2017 651.177 81.4867 651.177H79.9657V647.641ZM86.5099 656H85.4179L89.2009 646.705H90.6309L94.3749 656H93.2049L92.0349 653.075H87.6669L86.5099 656ZM90.7153 649.7L90.7151 649.7L90.7149 649.699L90.7147 649.699C90.4369 649 90.1567 648.295 89.8899 647.563H89.8639C89.6105 648.235 89.3139 648.956 89.0347 649.635C88.7839 650.245 88.5473 650.821 88.3689 651.294L88.0049 652.178H91.6839L91.2939 651.177C91.1077 650.688 90.915 650.203 90.7212 649.715L90.7208 649.714L90.7189 649.71L90.717 649.705L90.7161 649.703L90.7153 649.7ZM96.4026 656H97.5076V647.667H100.108V646.705H93.8026V647.667H96.4026V656ZM107.388 656H101.525V646.705H107.297V647.667H102.63V650.748H106.985V651.71H102.63V655.038H107.388V656ZM112.602 651.216V652.178H116.294C116.229 653.621 115.267 655.246 113.005 655.246C110.912 655.246 109.573 653.725 109.573 651.333C109.573 648.889 110.951 647.459 113.031 647.459C114.968 647.459 115.696 648.499 116.151 649.474H117.256C116.736 647.81 115.397 646.523 113.044 646.523C110.197 646.523 108.377 648.577 108.377 651.359C108.377 654.31 110.288 656.182 112.875 656.182C114.799 656.182 115.865 655.168 116.242 654.492L116.229 655.272V656H117.256V651.216H112.602ZM121.906 656H120.801V652.425L117.629 646.705H118.864C119.352 647.64 119.956 648.743 120.518 649.77L120.52 649.773L120.525 649.782C120.729 650.155 120.927 650.516 121.112 650.857L121.245 651.102C121.302 651.208 121.358 651.311 121.412 651.411C121.916 650.465 122.357 649.671 122.755 648.957L122.757 648.952L122.759 648.949L122.759 648.948C123.212 648.135 123.607 647.424 123.973 646.705H125.13L121.906 652.425V656ZM1.1959 671H3.9259C4.9269 671 5.7719 670.896 6.4869 670.519C7.2149 670.116 7.6829 669.453 7.6829 668.348C7.6829 666.918 6.7209 666.346 5.8759 666.099C6.4999 665.852 7.2799 665.293 7.2799 663.98C7.2799 663.005 6.8769 662.42 6.1099 662.069C5.5379 661.809 4.8229 661.705 3.8479 661.705H1.1959V671ZM2.2879 666.684H4.1079C5.5119 666.684 6.4609 667.1 6.4609 668.361C6.4609 668.933 6.2659 669.362 5.9149 669.635C5.5379 669.934 4.9919 670.051 4.4069 670.051H2.2879V666.684ZM2.2879 662.641H3.5489C4.2639 662.641 4.8359 662.68 5.2909 662.875C5.7589 663.083 6.0449 663.447 6.0449 664.162C6.0449 665.345 5.3429 665.748 3.9779 665.748H2.2879V662.641ZM10.4609 671H9.35594V661.705H11.9949C12.9309 661.705 13.7759 661.77 14.4129 662.225C15.1279 662.68 15.4789 663.408 15.4789 664.344C15.4789 665.956 14.3479 666.723 13.1129 666.931C13.6185 667.798 14.2433 668.815 14.8347 669.778C15.0949 670.202 15.3486 670.615 15.5829 671H14.2439L11.9559 667.087H10.4609V671ZM11.9819 662.641H10.4609V666.177H11.9819C12.6969 666.177 13.2429 666.047 13.6199 665.787C14.0489 665.488 14.2829 665.059 14.2829 664.396C14.2829 663.629 13.9839 663.161 13.4249 662.901C13.0739 662.732 12.5929 662.641 11.9819 662.641ZM15.9131 671H17.0051L18.1621 668.075H22.5301L23.7001 671H24.8701L21.1261 661.705H19.6961L15.9131 671ZM20.3851 662.563C20.6521 663.296 20.9324 664.001 21.2105 664.7L21.2111 664.702L21.2117 664.703C21.4071 665.195 21.6014 665.684 21.7891 666.177L22.1791 667.178H18.5001L18.8641 666.294C19.0425 665.821 19.2791 665.245 19.5299 664.635C19.809 663.956 20.1057 663.235 20.3591 662.563H20.3851ZM33.1059 661.705V671H31.5069L28.4129 665.436C28.2127 665.061 27.9855 664.651 27.7736 664.268C27.4352 663.658 27.1359 663.117 27.0479 662.901H27.0219C27.0219 663.125 27.0244 663.676 27.0273 664.292L27.0273 664.293L27.0273 664.294C27.0309 665.078 27.0349 665.966 27.0349 666.424V671H25.9299V661.705H27.6069L30.7659 667.438L32.0399 669.791H32.0659C32.0659 669.567 32.0586 669.196 32.0504 668.775C32.0395 668.223 32.0269 667.584 32.0269 667.074V661.705H33.1059ZM35.3722 671H37.9332C39.5972 671 40.5202 670.636 41.3002 670.025C42.3532 669.193 42.8732 667.893 42.8732 666.372C42.8732 664.331 42.0282 662.927 40.5072 662.212C39.7922 661.887 39.0252 661.705 37.7382 661.705H35.3722V671ZM36.4772 662.654C36.9062 662.641 37.3352 662.641 37.7902 662.641C40.2732 662.641 41.6512 663.915 41.6512 666.359C41.6512 669.089 40.2082 670.051 37.6472 670.051H36.4772V662.654ZM45.6655 671H44.5605V661.705H45.6655V671ZM55.0978 671V661.705H54.0188V667.074C54.0188 667.584 54.0313 668.223 54.0422 668.775L54.0422 668.776C54.0505 669.196 54.0578 669.567 54.0578 669.791H54.0318L52.7578 667.438L49.5988 661.705H47.9218V671H49.0268V666.424C49.0268 665.966 49.0227 665.076 49.0191 664.292L49.0191 664.287C49.0163 663.672 49.0138 663.124 49.0138 662.901H49.0398C49.1276 663.117 49.426 663.656 49.7638 664.265L49.7655 664.268C49.9774 664.651 50.2045 665.061 50.4048 665.436L53.4988 671H55.0978ZM60.991 667.178V666.216H65.645V671H64.618V670.272L64.631 669.492C64.254 670.168 63.188 671.182 61.264 671.182C58.677 671.182 56.766 669.31 56.766 666.359C56.766 663.577 58.586 661.523 61.433 661.523C63.786 661.523 65.125 662.81 65.645 664.474H64.54C64.085 663.499 63.357 662.459 61.42 662.459C59.34 662.459 57.962 663.889 57.962 666.333C57.962 668.725 59.301 670.246 61.394 670.246C63.656 670.246 64.618 668.621 64.683 667.178H60.991ZM1.1959 686H3.7569C5.4209 686 6.3439 685.636 7.1239 685.025C8.1769 684.193 8.6969 682.893 8.6969 681.372C8.6969 679.331 7.8519 677.927 6.3309 677.212C5.6159 676.887 4.8489 676.705 3.5619 676.705H1.1959V686ZM2.3009 677.654C2.7299 677.641 3.1589 677.641 3.6139 677.641C6.0969 677.641 7.4749 678.915 7.4749 681.359C7.4749 684.089 6.0319 685.051 3.4709 685.051H2.3009V677.654ZM11.4893 686H10.3843V676.705H11.4893V686ZM17.3725 681.216V682.178H21.0645C20.9995 683.621 20.0375 685.246 17.7755 685.246C15.6825 685.246 14.3435 683.725 14.3435 681.333C14.3435 678.889 15.7215 677.459 17.8015 677.459C19.7385 677.459 20.4665 678.499 20.9215 679.474H22.0265C21.5065 677.81 20.1675 676.523 17.8145 676.523C14.9675 676.523 13.1475 678.577 13.1475 681.359C13.1475 684.31 15.0585 686.182 17.6455 686.182C19.5695 686.182 20.6355 685.168 21.0125 684.492L20.9995 685.272V686H22.0265V681.216H17.3725ZM24.991 686H23.886V676.705H24.991V686ZM29.0022 686H30.1072V677.667H32.7072V676.705H26.4022V677.667H29.0022V686ZM33.2079 686H32.1159L35.8989 676.705H37.3289L41.0729 686H39.9029L38.7329 683.075H34.3649L33.2079 686ZM37.4132 679.7C37.1352 679.001 36.8548 678.296 36.5879 677.563H36.5619C36.3087 678.234 36.0122 678.955 35.7332 679.634L35.7327 679.635C35.4819 680.245 35.2453 680.821 35.0669 681.294L34.7029 682.178H38.3819L37.9919 681.177C37.8041 680.684 37.6097 680.195 37.4141 679.703L37.4132 679.7ZM42.1327 676.705V686H47.4237V685.038H43.2377V676.705H42.1327ZM54.2853 686H51.7243V676.705H54.0903C55.3773 676.705 56.1443 676.887 56.8593 677.212C58.3803 677.927 59.2253 679.331 59.2253 681.372C59.2253 682.893 58.7053 684.193 57.6523 685.025C56.8723 685.636 55.9493 686 54.2853 686ZM54.1423 677.641C53.6873 677.641 53.2583 677.641 52.8293 677.654V685.051H53.9993C56.5603 685.051 58.0033 684.089 58.0033 681.359C58.0033 678.915 56.6253 677.641 54.1423 677.641ZM60.9126 686H66.7756V685.038H62.0176V681.71H66.3726V680.748H62.0176V677.667H66.6846V676.705H60.9126V686ZM71.1679 686.182C69.2179 686.182 67.9179 685.181 67.7099 683.361H68.8149C69.0099 684.596 69.7899 685.298 71.1939 685.298C72.5459 685.298 73.3519 684.635 73.3519 683.595C73.3519 682.477 72.3509 682.139 71.1939 681.749L70.6349 681.567C69.0229 681.047 68.0479 680.384 68.0479 678.954C68.0479 677.498 69.2309 676.523 71.1679 676.523C73.0529 676.523 74.1579 677.433 74.3269 679.11H73.2479C73.0399 677.966 72.3379 677.394 71.1289 677.394C69.9199 677.394 69.1919 677.94 69.1919 678.837C69.1919 679.825 69.9459 680.202 71.1809 680.618L71.8179 680.839C73.3389 681.32 74.5089 681.918 74.5089 683.452C74.5089 685.181 73.1569 686.182 71.1679 686.182ZM76.1409 686H77.2459V676.705H76.1409V686ZM83.1291 682.178V681.216H87.7831V686H86.7561V685.272L86.7691 684.492C86.3921 685.168 85.3261 686.182 83.4021 686.182C80.8151 686.182 78.9041 684.31 78.9041 681.359C78.9041 678.577 80.7241 676.523 83.5711 676.523C85.9241 676.523 87.2631 677.81 87.7831 679.474H86.6781C86.2231 678.499 85.4951 677.459 83.5581 677.459C81.4781 677.459 80.1001 678.889 80.1001 681.333C80.1001 683.725 81.4391 685.246 83.5321 685.246C85.7941 685.246 86.7561 683.621 86.8211 682.178H83.1291ZM96.8186 686V676.705H95.7396V682.074C95.7396 682.583 95.7522 683.222 95.763 683.774L95.763 683.774L95.7631 683.775C95.7713 684.196 95.7786 684.567 95.7786 684.791H95.7526L94.4786 682.438L91.3196 676.705H89.6426V686H90.7476V681.424C90.7476 680.966 90.7435 680.076 90.74 679.292C90.7371 678.676 90.7346 678.125 90.7346 677.901H90.7606C90.8485 678.117 91.1475 678.657 91.4857 679.267L91.4863 679.268C91.6982 679.651 91.9254 680.061 92.1256 680.436L95.2196 686H96.8186ZM3.7569 701H1.1959V691.705H3.5619C4.8489 691.705 5.6159 691.887 6.3309 692.212C7.8519 692.927 8.6969 694.331 8.6969 696.372C8.6969 697.893 8.1769 699.193 7.1239 700.025C6.3439 700.636 5.4209 701 3.7569 701ZM3.6139 692.641C3.1589 692.641 2.7299 692.641 2.3009 692.654V700.051H3.4709C6.0319 700.051 7.4749 699.089 7.4749 696.359C7.4749 693.915 6.0969 692.641 3.6139 692.641ZM10.3843 701H16.2473V700.038H11.4893V696.71H15.8443V695.748H11.4893V692.667H16.1563V691.705H10.3843V701ZM20.4846 698.483L20.4848 698.484C20.6654 698.983 20.8452 699.481 21.0295 700.064H21.0555C21.2365 699.478 21.4575 698.875 21.6805 698.266C21.794 697.957 21.908 697.646 22.0175 697.334L24.0065 691.705H25.1635L21.7315 701H20.2755C19.5218 699.074 18.1696 695.26 17.3728 693.012L17.3661 692.993L17.1531 692.393C17.0568 692.121 16.9742 691.889 16.9085 691.705H18.1175L20.1065 697.412C20.2338 697.789 20.359 698.135 20.4837 698.48L20.4846 698.483ZM26.3743 701H32.2373V700.038H27.4793V696.71H31.8343V695.748H27.4793V692.667H32.1463V691.705H26.3743V701ZM33.8995 701V691.705H35.0045V700.038H39.1905V701H33.8995ZM44.3001 691.523C41.5311 691.523 39.6461 693.499 39.6461 696.359C39.6461 699.219 41.5181 701.182 44.3131 701.182C47.1341 701.182 48.9671 699.219 48.9671 696.359C48.9671 693.486 47.0691 691.523 44.3001 691.523ZM44.2871 692.446C46.4581 692.446 47.7451 694.006 47.7451 696.346C47.7451 698.647 46.4321 700.259 44.3001 700.259C42.1161 700.259 40.8291 698.634 40.8291 696.346C40.8291 694.045 42.1161 692.446 44.2871 692.446ZM51.7309 701H50.6259V691.705H53.2909C54.0709 691.705 54.7729 691.783 55.3319 692.082C56.0989 692.485 56.5799 693.187 56.5799 694.383C56.5799 695.332 56.2419 696.021 55.6309 696.476C55.0459 696.931 54.2269 697.113 53.2259 697.113H51.7309V701ZM53.1609 692.641H51.7309V696.177H53.2389C54.4609 696.177 55.3839 695.683 55.3839 694.383C55.3839 693.226 54.6429 692.641 53.1609 692.641ZM58.1257 701H59.2307V695.787C59.2307 694.487 59.2177 693.278 59.2047 692.511H59.2177C59.3099 692.806 59.3963 693.13 59.4934 693.495C59.6016 693.901 59.7231 694.357 59.8807 694.877L61.7267 701H63.1307L64.7297 696.19C65.183 694.843 65.6471 693.276 65.8311 692.655L65.8737 692.511H65.8867C65.8867 692.864 65.8782 693.502 65.8691 694.18C65.8588 694.951 65.8477 695.776 65.8477 696.294V701H66.9527V691.705H65.1457L63.3647 697.165C63.2526 697.495 63.0876 698.051 62.9205 698.614L62.9198 698.616C62.7773 699.096 62.6334 699.582 62.5197 699.934H62.5067C62.3766 699.53 62.2248 698.989 62.0799 698.472C61.9498 698.008 61.8252 697.564 61.7267 697.256L60.0367 691.705H58.1257V701ZM75.0814 701H69.2184V691.705H74.9904V692.667H70.3234V695.748H74.6784V696.71H70.3234V700.038H75.0814V701ZM83.9197 701V691.705H82.8407V697.074C82.8407 697.583 82.8532 698.222 82.8641 698.774L82.8641 698.774L82.8641 698.775C82.8724 699.196 82.8797 699.567 82.8797 699.791H82.8537L81.5797 697.438L78.4207 691.705H76.7437V701H77.8487V696.424C77.8487 695.966 77.8446 695.076 77.841 694.292L77.838 693.621L77.8363 693.181C77.8359 693.063 77.8357 692.968 77.8357 692.901H77.8617C77.9496 693.117 78.2486 693.657 78.5868 694.267L78.5874 694.268L78.5898 694.273L78.5934 694.279C78.8036 694.659 79.0284 695.065 79.2267 695.436L82.3207 701H83.9197ZM89.0459 701H87.9409V692.667H85.3409V691.705H91.6459V692.667H89.0459V701ZM663.361 185.846C662.155 185.645 660.949 185.545 659.743 185.545C649.995 185.545 646.076 191.173 646.076 200.82V205.242H639.142V211.472H646.076V258H654.417V211.472H663.361V205.242H654.417V198.91C654.417 194.187 657.03 192.378 660.949 192.378C661.653 192.378 662.657 192.479 663.361 192.579V185.846ZM679.641 196.298V186.148H671.099V196.298H679.641ZM671.3 205.242V258H679.44V205.242H671.3ZM466.269 258H445.166V186.148H465.666C473.203 186.148 478.73 186.952 483.152 188.962C489.081 191.675 492.196 196.197 492.196 203.734C492.196 213.884 486.167 218.205 481.343 220.114C487.875 222.024 495.312 226.446 495.312 237.5C495.312 246.042 491.694 251.167 486.066 254.282C480.539 257.196 474.007 258 466.269 258ZM467.676 224.637H453.607V250.664H469.987C474.51 250.664 478.73 249.76 481.645 247.449C484.358 245.338 485.865 242.022 485.865 237.6C485.865 227.852 478.529 224.637 467.676 224.637ZM463.355 193.383H453.607V217.401H466.671C477.223 217.401 482.65 214.286 482.65 205.141C482.65 199.614 480.439 196.8 476.821 195.192C473.304 193.685 468.882 193.383 463.355 193.383ZM508.848 231.571C508.848 244.132 515.279 252.574 526.836 252.574C538.393 252.574 544.724 244.132 544.724 231.571C544.724 219.411 538.192 210.568 526.836 210.568C515.38 210.568 508.848 219.411 508.848 231.571ZM553.768 231.671C553.768 247.75 543.618 259.307 526.836 259.307C509.953 259.307 500.306 247.75 500.306 231.671C500.306 215.592 510.556 203.835 527.037 203.835C543.518 203.835 553.768 215.592 553.768 231.671ZM569.662 205.242H561.723C561.824 207.653 561.824 210.769 561.824 213.18V258H570.165V229.159C570.165 218.607 573.079 211.774 581.219 211.774C582.324 211.774 583.832 211.774 584.636 212.075V204.136C584.133 204.036 583.53 204.036 583.028 204.036C576.898 204.036 571.471 208.256 569.662 213.783V205.242ZM598.334 258H589.993V213.18C589.993 210.769 589.993 207.653 589.893 205.242H598.133V212.779C600.846 208.357 606.273 203.835 615.318 203.835C627.477 203.835 633.406 211.673 633.406 225.039V258H625.065V227.651C625.065 217.1 621.247 210.568 612.102 210.568C603.258 210.568 598.334 217.803 598.334 226.345V258ZM697.821 259.709C699.428 264.532 703.448 270.26 713.196 270.26C724.853 270.26 730.179 262.02 730.179 248.855V245.439C727.265 250.664 721.235 255.588 711.789 255.588C696.916 255.588 687.57 244.735 687.57 229.862C687.57 214.185 697.921 203.835 711.89 203.835C721.436 203.835 726.964 208.055 730.179 212.879C730.079 211.975 730.079 211.171 730.079 210.266V205.242H738.319V247.549C738.319 265.236 730.481 276.993 712.493 276.993C699.83 276.993 691.69 268.552 689.279 259.709H697.821ZM696.615 229.762C696.615 240.615 702.644 248.855 713.397 248.855C722.743 248.855 730.179 241.821 730.179 229.46C730.179 218.306 723.748 210.668 713.397 210.668C702.946 210.668 696.615 218.507 696.615 229.762ZM749.675 186.148V258H758.016V226.345C758.016 217.803 762.94 210.568 771.783 210.568C780.928 210.568 784.747 217.1 784.747 227.651V258H793.088V225.039C793.088 211.673 787.159 203.835 774.999 203.835C765.955 203.835 760.528 208.357 757.815 212.779C757.815 211.774 757.815 210.769 757.915 209.663C757.915 208.764 757.938 207.776 757.961 206.73C757.988 205.555 758.016 204.307 758.016 203.031V186.148H749.675ZM806.059 245.841V211.472H797.919V205.242H806.059V190.972H814.3V205.242H824.349V211.472H814.3V245.137C814.3 250.463 816.812 252.674 821.736 252.674C822.239 252.674 822.54 252.674 823.344 252.574V258.804C822.44 258.905 821.435 259.005 820.53 259.005C811.787 259.005 806.059 255.89 806.059 245.841ZM843.315 186.148H834.573L828.041 209.462H835.176L843.315 186.148ZM866.394 259.206C854.737 259.206 846.798 254.182 844.487 242.022H852.627C854.536 248.855 858.556 252.674 866.595 252.674C873.831 252.674 878.755 249.157 878.755 243.931C878.755 238.706 874.434 237.198 867.6 235.289L861.37 233.581C852.928 231.169 846.396 228.254 846.396 219.11C846.396 209.663 854.536 203.835 865.992 203.835C876.745 203.835 884.282 208.357 885.89 219.11H878.052C876.544 213.884 872.725 210.367 865.791 210.367C858.556 210.367 854.737 213.683 854.737 218.004C854.737 222.727 858.455 224.637 865.289 226.546L871.921 228.455C881.066 231.169 886.895 234.485 886.895 242.926C886.895 253.277 878.453 259.206 866.394 259.206ZM431.682 348H439.42V339.961C442.535 344.684 448.665 349.307 457.81 349.307C472.18 349.307 482.531 338.152 482.531 321.269C482.531 304.989 472.783 293.835 458.413 293.835C449.067 293.835 442.836 298.558 439.922 303.381C440.023 299.764 440.023 295.041 440.023 291.523V276.148H431.682V348ZM456.604 342.574C445.65 342.574 439.822 334.434 439.822 321.571C439.822 309.311 445.751 300.568 456.604 300.568C467.457 300.568 473.487 309.311 473.487 321.571C473.487 334.434 467.457 342.574 456.604 342.574ZM499.311 348H490.97V276.148H499.311V348ZM553.187 295.242H544.846V326.997C544.846 335.439 540.223 342.674 531.682 342.674C522.738 342.674 518.919 336.142 518.919 325.691V295.242H510.578V328.203C510.578 341.569 516.306 349.407 528.466 349.407C537.51 349.407 542.635 345.086 545.047 340.765V348H553.287C553.187 345.287 553.187 342.674 553.187 339.961V295.242ZM612.733 322.607C612.717 322.759 612.705 322.874 612.705 322.978H569.594C570.297 335.539 577.031 342.574 587.884 342.574C595.823 342.574 600.646 338.152 603.159 333.027H611.6C608.384 342.373 599.641 349.307 587.683 349.307C571.101 349.307 561.253 337.75 561.253 321.772C561.253 305.19 571.805 293.835 587.783 293.835C605.169 293.835 612.806 307.1 612.806 321.169C612.806 321.894 612.763 322.317 612.733 322.607L612.733 322.607ZM587.582 300.367C577.533 300.367 571.302 306.999 569.996 316.747H604.063C602.958 307.2 598.034 300.367 587.582 300.367ZM681.207 331.318C678.494 337.75 673.972 342.574 664.827 342.574C653.17 342.574 646.939 334.333 646.939 321.571C646.939 309.411 653.572 300.568 664.827 300.568C674.273 300.568 678.795 306.195 681.207 312.426H689.448C686.533 302.075 679.097 293.835 664.827 293.835C649.25 293.835 638.397 304.788 638.397 321.47C638.397 338.453 648.647 349.307 664.726 349.307C678.092 349.307 686.433 341.368 689.347 331.318H681.207ZM701.998 321.571C701.998 334.132 708.43 342.574 719.986 342.574C731.543 342.574 737.874 334.132 737.874 321.571C737.874 309.411 731.342 300.568 719.986 300.568C708.53 300.568 701.998 309.411 701.998 321.571ZM746.918 321.671C746.918 337.75 736.769 349.307 719.986 349.307C703.104 349.307 693.456 337.75 693.456 321.671C693.456 305.592 703.706 293.835 720.187 293.835C736.668 293.835 746.918 305.592 746.918 321.671ZM755.376 348H763.717V276.148H755.376V348ZM784.33 348H775.989V276.148H784.33V348ZM802.732 311.22C803.435 304.386 807.254 300.367 815.696 300.367C824.639 300.367 828.559 304.889 828.559 316.144C824.238 316.446 819.012 317.149 814.691 317.852C801.828 319.963 792.381 323.48 792.381 333.831C792.381 343.478 800.019 349.005 810.872 349.005C820.419 349.005 825.745 345.186 829.061 339.86C829.061 343.378 829.363 345.689 829.765 348H837.402C836.699 345.588 836.397 341.971 836.397 337.549V324.585C836.397 323.339 836.424 321.825 836.45 320.361C836.474 318.992 836.498 317.666 836.498 316.647C836.498 300.266 829.765 293.835 816.098 293.835C803.335 293.835 794.793 301.372 794.793 311.22H802.732ZM828.659 324.585C828.659 336.745 823.032 343.177 812.882 343.177C805.646 343.177 801.124 339.76 801.124 333.73C801.124 326.193 809.264 324.686 824.338 322.576L828.76 321.973C828.659 322.274 828.659 323.179 828.659 324.585ZM847.135 295.242H855.074V303.783C856.883 298.256 862.309 294.036 868.439 294.036C868.942 294.036 869.545 294.036 870.047 294.136V302.075C869.243 301.774 867.736 301.774 866.631 301.774C858.491 301.774 855.576 308.607 855.576 319.159V348H847.235V303.18C847.235 300.769 847.235 297.653 847.135 295.242ZM871.552 348H880.395V336.846H871.552V348ZM15.476 259H7.73804V187.147H16.0789V202.523C16.0789 206.04 16.0789 210.763 15.9785 214.381C18.8927 209.557 25.1233 204.834 34.4692 204.834C48.8396 204.834 58.5874 215.989 58.5874 232.269C58.5874 249.152 48.2367 260.306 33.8662 260.306C24.7213 260.306 18.5913 255.684 15.476 250.96V259ZM15.878 232.57C15.878 245.433 21.7066 253.573 32.6603 253.573C43.5135 253.573 49.5431 245.433 49.5431 232.57C49.5431 220.31 43.5135 211.567 32.6603 211.567C21.807 211.567 15.878 220.31 15.878 232.57ZM98.1175 231.787L98.1173 231.787L98.1161 231.791L98.1148 231.794L98.1136 231.797C92.3529 246.695 86.555 261.688 80.2288 277.089H71.8878L79.2238 259.301L58.9243 206.241H68.2701C72.4097 218.029 76.4514 229.326 79.7794 238.629L79.7805 238.632C81.2187 242.652 82.5236 246.3 83.6455 249.453C84.4403 247.292 85.5482 244.327 86.8297 240.898L86.83 240.897L86.8301 240.896L86.8307 240.895C90.7337 230.449 96.2457 215.697 99.4229 206.241H108.065C104.702 214.76 101.418 223.252 98.1219 231.776L98.1186 231.784L98.1175 231.787ZM766.309 697.425C766.036 698.036 765.529 698.569 764.554 698.569C763.306 698.569 762.565 697.633 762.565 696.333C762.565 695.033 763.306 694.123 764.554 694.123C765.542 694.123 766.062 694.643 766.309 695.332H767.141C766.764 694.097 765.854 693.434 764.554 693.434C762.89 693.434 761.733 694.604 761.733 696.346C761.733 698.088 762.864 699.258 764.515 699.258C765.828 699.258 766.738 698.556 767.154 697.425H766.309ZM769.429 696.32C769.429 693.616 767.245 691.432 764.541 691.432C761.785 691.432 759.64 693.616 759.64 696.32C759.64 699.037 761.811 701.221 764.515 701.221C767.258 701.221 769.429 699.05 769.429 696.32ZM768.766 696.32C768.766 698.712 766.855 700.61 764.528 700.61C762.162 700.61 760.316 698.673 760.316 696.32C760.316 693.941 762.162 692.056 764.541 692.056C766.855 692.056 768.766 693.941 768.766 696.32ZM779.758 701V700.038H775C775.319 699.785 775.576 699.584 775.784 699.421L776.031 699.228L776.032 699.227L776.035 699.225L776.044 699.218L776.045 699.217L776.052 699.211L776.148 699.136L776.27 699.041L776.396 698.942L776.432 698.913C776.524 698.84 776.598 698.78 776.664 698.725L776.713 698.682C778.118 697.484 779.693 696.141 779.693 694.201C779.693 692.602 778.679 691.523 776.755 691.523C774.831 691.523 773.687 692.797 773.687 694.63H774.792C774.844 693.174 775.52 692.433 776.703 692.433C777.847 692.433 778.497 693.174 778.497 694.266C778.497 695.319 778.029 696.229 776.391 697.698C776.294 697.784 776.194 697.872 776.092 697.961C775.954 698.083 775.813 698.207 775.672 698.331L775.361 698.603L775.234 698.715C775.15 698.789 775.068 698.862 774.987 698.933L774.863 699.043L774.743 699.149L774.623 699.258L773.726 700.064V701H779.758ZM780.662 696.372C780.662 693.902 781.234 691.523 783.873 691.523C786.499 691.523 787.097 693.902 787.097 696.372C787.097 699.102 786.421 701.195 783.873 701.195C781.325 701.195 780.662 699.102 780.662 696.372ZM785.914 696.359C785.914 694.24 785.563 692.42 783.873 692.42C782.17 692.42 781.845 694.24 781.845 696.359C781.845 698.66 782.261 700.311 783.873 700.311C785.498 700.311 785.914 698.66 785.914 696.359ZM794.047 701V700.038H789.289C789.748 699.675 790.076 699.418 790.321 699.227C790.406 699.16 790.481 699.102 790.548 699.049C790.729 698.907 790.851 698.81 790.953 698.725L791.002 698.682C792.407 697.484 793.982 696.141 793.982 694.201C793.982 692.602 792.968 691.523 791.044 691.523C789.12 691.523 787.976 692.797 787.976 694.63H789.081C789.133 693.174 789.809 692.433 790.992 692.433C792.136 692.433 792.786 693.174 792.786 694.266C792.786 695.319 792.318 696.229 790.68 697.698C790.451 697.901 790.205 698.116 789.96 698.331C789.744 698.521 789.528 698.71 789.324 698.891C789.179 699.018 789.041 699.141 788.912 699.258L788.015 700.064V701H794.047ZM799.358 701H798.266V693.889H796.03V693.174C797.642 693.135 798.344 692.745 798.5 691.705H799.358V701ZM803.968 699.557H802.836L801.992 702.573H802.914L803.968 699.557ZM811.807 701H809.077V691.705H811.729C812.704 691.705 813.419 691.809 813.991 692.069C814.758 692.42 815.161 693.005 815.161 693.98C815.161 695.293 814.381 695.852 813.757 696.099C814.602 696.346 815.564 696.918 815.564 698.348C815.564 699.453 815.096 700.116 814.368 700.519C813.653 700.896 812.808 701 811.807 701ZM811.989 696.684H810.169V700.051H812.288C812.873 700.051 813.419 699.934 813.796 699.635C814.147 699.362 814.342 698.933 814.342 698.361C814.342 697.1 813.393 696.684 811.989 696.684ZM811.43 692.641H810.169V695.748H811.859C813.224 695.748 813.926 695.345 813.926 694.162C813.926 693.447 813.64 693.083 813.172 692.875C812.717 692.68 812.145 692.641 811.43 692.641ZM820.032 700.298C818.537 700.298 817.705 699.206 817.705 697.581C817.705 696.008 818.55 694.864 820.032 694.864C821.501 694.864 822.346 696.008 822.346 697.581C822.346 699.206 821.527 700.298 820.032 700.298ZM820.032 701.169C822.203 701.169 823.516 699.674 823.516 697.594C823.516 695.514 822.19 693.993 820.058 693.993C817.926 693.993 816.6 695.514 816.6 697.594C816.6 699.674 817.848 701.169 820.032 701.169ZM824.936 694.175H825.963V695.28C826.197 694.565 826.899 694.019 827.692 694.019C827.757 694.019 827.835 694.019 827.9 694.032V695.059C827.796 695.02 827.601 695.02 827.458 695.02C826.405 695.02 826.028 695.904 826.028 697.269V701H824.949V695.202C824.949 695.055 824.949 694.888 824.947 694.719C824.946 694.53 824.942 694.34 824.936 694.175ZM828.983 701H830.062V696.905C830.062 695.8 830.699 694.864 831.843 694.864C833.026 694.864 833.52 695.709 833.52 697.074V701H834.599V696.736C834.599 695.007 833.832 693.993 832.259 693.993C831.089 693.993 830.387 694.578 830.036 695.15V694.175H828.97C828.977 694.347 828.98 694.547 828.982 694.744C828.983 694.904 828.983 695.062 828.983 695.202V701ZM838.396 691.627C838.552 691.627 838.708 691.64 838.864 691.666V692.537C838.773 692.524 838.643 692.511 838.552 692.511C838.045 692.511 837.707 692.745 837.707 693.356V694.175H838.864V694.981H837.707V701H836.628V694.981H835.731V694.175H836.628V693.603C836.628 692.355 837.135 691.627 838.396 691.627ZM840.97 691.705V693.018H839.865V691.705H840.97ZM839.891 701V694.175H840.944V701H839.891ZM845.7 702.586C844.439 702.586 843.919 701.845 843.711 701.221H842.606C842.918 702.365 843.971 703.457 845.609 703.457C847.936 703.457 848.95 701.936 848.95 699.648V694.175H847.884V694.825C847.884 694.942 847.884 695.046 847.897 695.163C847.481 694.539 846.766 693.993 845.531 693.993C843.724 693.993 842.385 695.332 842.385 697.36C842.385 699.284 843.594 700.688 845.518 700.688C846.74 700.688 847.52 700.051 847.897 699.375V699.817C847.897 701.52 847.208 702.586 845.7 702.586ZM845.726 699.817C844.335 699.817 843.555 698.751 843.555 697.347C843.555 695.891 844.374 694.877 845.726 694.877C847.065 694.877 847.897 695.865 847.897 697.308C847.897 698.907 846.935 699.817 845.726 699.817ZM850.809 701V691.705H851.888V693.889C851.888 694.201 851.875 694.5 851.875 694.747C851.862 694.89 851.862 695.02 851.862 695.15C852.213 694.578 852.915 693.993 854.085 693.993C855.658 693.993 856.425 695.007 856.425 696.736V701H855.346V697.074C855.346 695.709 854.852 694.864 853.669 694.864C852.525 694.864 851.888 695.8 851.888 696.905V701H850.809ZM858.493 694.981V699.427C858.493 700.727 859.234 701.13 860.365 701.13C860.482 701.13 860.612 701.117 860.729 701.104V700.298C860.625 700.311 860.586 700.311 860.521 700.311C859.884 700.311 859.559 700.025 859.559 699.336V694.981H860.859V694.175H859.559V692.329H858.493V694.175H857.44V694.981H858.493ZM868.134 701.182C866.185 701.182 864.884 700.181 864.677 698.361H865.781C865.977 699.596 866.756 700.298 868.16 700.298C869.513 700.298 870.318 699.635 870.318 698.595C870.318 697.477 869.318 697.139 868.16 696.749L867.602 696.567C865.99 696.047 865.014 695.384 865.014 693.954C865.014 692.498 866.198 691.523 868.134 691.523C870.019 691.523 871.124 692.433 871.293 694.11H870.214C870.006 692.966 869.305 692.394 868.095 692.394C866.886 692.394 866.158 692.94 866.158 693.837C866.158 694.825 866.912 695.202 868.147 695.618L868.784 695.839C870.305 696.32 871.475 696.918 871.475 698.452C871.475 700.181 870.123 701.182 868.134 701.182ZM873.185 694.981V699.427C873.185 700.727 873.927 701.13 875.057 701.13C875.174 701.13 875.305 701.117 875.422 701.104V700.298C875.318 700.311 875.279 700.311 875.214 700.311C874.576 700.311 874.251 700.025 874.251 699.336V694.981H875.552V694.175H874.251V692.329H873.185V694.175H872.133V694.981H873.185ZM881.073 694.175H882.152V699.96C882.152 700.053 882.152 700.145 882.152 700.237L882.153 700.337L882.153 700.419C882.154 700.481 882.154 700.543 882.155 700.606C882.157 700.736 882.16 700.867 882.165 701H881.099V700.064C880.787 700.623 880.124 701.182 878.954 701.182C877.381 701.182 876.64 700.168 876.64 698.439V694.175H877.719V698.114C877.719 699.466 878.213 700.311 879.37 700.311C880.475 700.311 881.073 699.375 881.073 698.283V694.175ZM890.164 691.705H889.084V693.72C889.084 694.175 889.085 694.76 889.098 695.228C888.708 694.591 887.979 693.993 886.706 693.993C884.898 693.993 883.586 695.475 883.586 697.581C883.586 699.856 884.924 701.169 886.784 701.169C887.966 701.169 888.759 700.571 889.162 699.96V701H890.164V691.705ZM886.94 700.298C885.535 700.298 884.755 699.245 884.755 697.581C884.755 695.995 885.535 694.877 886.94 694.877C888.344 694.877 889.11 695.995 889.11 697.581C889.11 699.245 888.357 700.298 886.94 700.298ZM893.114 691.705V693.018H892.009V691.705H893.114ZM892.035 701V694.175H893.088V701H892.035ZM897.955 700.298C896.46 700.298 895.628 699.206 895.628 697.581C895.628 696.008 896.473 694.864 897.955 694.864C899.424 694.864 900.269 696.008 900.269 697.581C900.269 699.206 899.45 700.298 897.955 700.298ZM897.955 701.169C900.126 701.169 901.439 699.674 901.439 697.594C901.439 695.514 900.113 693.993 897.981 693.993C895.849 693.993 894.523 695.514 894.523 697.594C894.523 699.674 895.771 701.169 897.955 701.169ZM654.443 701H655.548V697.113H657.043C658.044 697.113 658.863 696.931 659.448 696.476C660.059 696.021 660.397 695.332 660.397 694.383C660.397 693.187 659.916 692.485 659.149 692.082C658.59 691.783 657.888 691.705 657.108 691.705H654.443V701ZM655.548 692.641H656.978C658.46 692.641 659.201 693.226 659.201 694.383C659.201 695.683 658.278 696.177 657.056 696.177H655.548V692.641ZM662.762 694.175H661.734C661.737 694.228 661.739 694.284 661.74 694.342C661.742 694.426 661.744 694.513 661.745 694.601C661.746 694.698 661.747 694.795 661.747 694.89C661.747 694.999 661.747 695.105 661.747 695.202V701H662.827V697.269C662.827 695.904 663.203 695.02 664.257 695.02C664.4 695.02 664.594 695.02 664.698 695.059V694.032C664.633 694.019 664.555 694.019 664.491 694.019C663.698 694.019 662.995 694.565 662.762 695.28V694.175ZM666.861 691.705V693.018H665.756V691.705H666.861ZM665.782 701V694.175H666.835V701H665.782ZM671.727 701L674.327 694.175H673.222L672.013 697.62C671.847 698.133 671.71 698.505 671.571 698.883C671.45 699.214 671.327 699.549 671.181 699.986H671.155C670.89 699.159 670.757 698.781 670.532 698.145L670.529 698.138L670.528 698.135L670.401 697.776L669.153 694.175H667.944C668.419 695.43 668.907 696.752 669.393 698.069L669.397 698.082L669.411 698.117C669.641 698.743 669.872 699.367 670.1 699.982C670.227 700.325 670.354 700.664 670.479 701H671.727ZM677.717 694.838C676.625 694.838 676.131 695.358 676.04 696.242H675.013C675.013 694.968 676.118 693.993 677.769 693.993C679.537 693.993 680.408 694.825 680.408 696.944C680.408 697.074 680.405 697.241 680.402 697.414L680.402 697.423L680.401 697.501C680.398 697.666 680.395 697.831 680.395 697.971V699.648C680.395 700.22 680.434 700.688 680.525 701H679.537C679.485 700.701 679.446 700.402 679.446 699.947C679.017 700.636 678.328 701.13 677.093 701.13C675.689 701.13 674.701 700.415 674.701 699.167C674.701 697.828 675.923 697.373 677.587 697.1C678.146 697.009 678.822 696.918 679.381 696.879C679.381 695.423 678.874 694.838 677.717 694.838ZM677.353 700.376C678.666 700.376 679.394 699.544 679.394 697.971C679.394 697.789 679.394 697.672 679.407 697.633L678.835 697.711C676.885 697.984 675.832 698.179 675.832 699.154C675.832 699.934 676.417 700.376 677.353 700.376ZM687.283 698.842C686.932 699.674 686.347 700.298 685.164 700.298C683.656 700.298 682.85 699.232 682.85 697.581C682.85 696.008 683.708 694.864 685.164 694.864C686.386 694.864 686.971 695.592 687.283 696.398H688.349C687.972 695.059 687.01 693.993 685.164 693.993C683.149 693.993 681.745 695.41 681.745 697.568C681.745 699.765 683.071 701.169 685.151 701.169C686.88 701.169 687.959 700.142 688.336 698.842H687.283ZM693.838 697.478C693.093 699.406 692.342 701.347 691.523 703.34H690.444L691.393 701.039L688.767 694.175H689.976C690.511 695.696 691.032 697.154 691.462 698.356L691.467 698.369L691.489 698.43L691.745 699.146C691.823 699.366 691.897 699.573 691.965 699.765C692.068 699.486 692.211 699.103 692.377 698.66C692.882 697.308 693.595 695.399 694.006 694.175H695.124C694.691 695.273 694.267 696.368 693.842 697.467L693.838 697.478ZM698.987 694.175V703.34H700.066V701.78C700.066 701 700.053 700.402 700.04 700.038C700.456 700.623 701.223 701.169 702.367 701.169C704.226 701.169 705.565 699.726 705.565 697.542C705.565 695.436 704.304 693.993 702.445 693.993C701.236 693.993 700.417 694.63 700.04 695.241V694.188L698.987 694.175ZM702.211 700.298C700.794 700.298 700.04 699.245 700.04 697.581C700.04 695.995 700.807 694.864 702.211 694.864C703.615 694.864 704.395 695.995 704.395 697.581C704.395 699.245 703.615 700.298 702.211 700.298ZM707.658 697.581C707.658 699.206 708.49 700.298 709.985 700.298C711.48 700.298 712.299 699.206 712.299 697.581C712.299 696.008 711.454 694.864 709.985 694.864C708.503 694.864 707.658 696.008 707.658 697.581ZM713.469 697.594C713.469 699.674 712.156 701.169 709.985 701.169C707.801 701.169 706.553 699.674 706.553 697.594C706.553 695.514 707.879 693.993 710.011 693.993C712.143 693.993 713.469 695.514 713.469 697.594ZM714.953 701H716.032V691.705H714.953V701ZM719.036 691.705V693.018H717.931V691.705H719.036ZM717.957 701V694.175H719.01V701H717.957ZM725.983 698.842C725.632 699.674 725.047 700.298 723.864 700.298C722.356 700.298 721.55 699.232 721.55 697.581C721.55 696.008 722.408 694.864 723.864 694.864C725.086 694.864 725.671 695.592 725.983 696.398H727.049C726.672 695.059 725.71 693.993 723.864 693.993C721.849 693.993 720.445 695.41 720.445 697.568C720.445 699.765 721.771 701.169 723.851 701.169C725.58 701.169 726.659 700.142 727.036 698.842H725.983ZM732.536 697.481C731.791 699.408 731.041 701.348 730.223 703.34H729.144L730.093 701.039L727.467 694.175H728.676C729.206 695.685 729.724 697.132 730.152 698.329L730.157 698.343L730.166 698.369L730.356 698.901C730.468 699.213 730.571 699.502 730.665 699.765C730.768 699.486 730.911 699.102 731.076 698.659L731.077 698.656L731.079 698.651C731.584 697.3 732.295 695.396 732.706 694.175H733.824C733.388 695.278 732.963 696.377 732.536 697.481Z" fill="#121212"/>
</svg>
