<?xml version="1.0" standalone="no"?>
<!DOCTYPE svg PUBLIC "-//W3C//DTD SVG 20010904//EN"
 "http://www.w3.org/TR/2001/REC-SVG-20010904/DTD/svg10.dtd">
<svg version="1.0" xmlns="http://www.w3.org/2000/svg"
 width="260.000000pt" height="260.000000pt" viewBox="0 0 260.000000 260.000000"
 preserveAspectRatio="xMidYMid meet">
<metadata>
Created by potrace 1.14, written by Peter Selinger 2001-2017
</metadata>
<g transform="translate(0.000000,260.000000) scale(0.100000,-0.100000)"
fill="#000000" stroke="none">
<path d="M1957 1790 c-135 -34 -215 -122 -224 -245 -4 -51 -1 -68 24 -115 39
-77 103 -118 261 -171 214 -70 252 -99 252 -184 0 -115 -120 -185 -265 -155
-46 10 -66 20 -101 55 -28 28 -45 56 -49 79 l-7 36 -75 0 -74 0 7 -37 c34
-190 251 -297 479 -238 187 49 284 224 211 381 -38 83 -95 117 -304 184 -150
48 -195 79 -207 142 -9 45 16 102 58 132 43 31 162 35 220 7 43 -21 87 -79 87
-115 0 -13 13 -16 76 -16 l76 0 -7 33 c-20 96 -75 164 -164 205 -42 19 -74 26
-145 28 -50 2 -108 -1 -129 -6z"/>
<path d="M180 1299 l0 -481 228 4 c208 4 232 6 285 27 117 46 167 118 167 241
0 114 -44 183 -142 224 l-32 14 31 15 c74 39 107 111 101 222 -3 64 -7 78 -34
112 -66 81 -155 103 -426 103 l-178 0 0 -481z m430 335 c44 -25 60 -56 60
-117 0 -112 -54 -146 -232 -147 l-118 0 0 146 0 146 128 -4 c105 -3 134 -7
162 -24z m3 -396 c89 -27 128 -115 91 -206 -15 -35 -29 -51 -63 -69 -40 -21
-57 -23 -183 -23 l-138 0 0 155 0 155 126 0 c70 0 145 -5 167 -12z"/>
<path d="M1010 1300 l0 -480 70 0 70 0 2 213 3 212 208 3 207 2 0 60 0 60
-207 2 -208 3 0 140 0 140 223 3 222 2 0 60 0 60 -295 0 -295 0 0 -480z"/>
</g>
</svg>
